PathFileType	4	(X/Y/Z)	C:\Users\Biomechanik\SynologyDrive\AlexP\Athlete_03\Athlete_3_25_03_31\Squat_35kg_02\marker_experimental.trc
DataRate	CameraRate	NumFrames	NumMarkers	Units	OrigDataRate	OrigDataStartFrame	OrigNumFrames
200.000000	200.000000	4	55	mm	200.000000	132	530
Frame#	Time	BL			BR			GLAB			RFHD			LFHD			C7			T6			SPINMOL			SPINM2			SPINM3			T12			BELTOL			BELT2			BELT3			SACROL			SACR2			SACR3			LTHOL			LTH2			LTH3			LSHAOL			LSHA2			LSHA3			LHEE			LTOE			LM5			RTHOL			RTH2			RTH3			RSHAOL			RSHA2			RSHA3			RHEE			RTOE			RM5			STRN			XIPH			LACR			LUAOL			LUA2			LUA3			LLAOL			LLA2			LLA3			LWRR			LWRU			RACR			RUAOL			RUA2			RUA3			RLAOL			RLA2			RLA3			RWRR			RWRU			
		X1	Y1	Z1	X2	Y2	Z2	X3	Y3	Z3	X4	Y4	Z4	X5	Y5	Z5	X6	Y6	Z6	X7	Y7	Z7	X8	Y8	Z8	X9	Y9	Z9	X10	Y10	Z10	X11	Y11	Z11	X12	Y12	Z12	X13	Y13	Z13	X14	Y14	Z14	X15	Y15	Z15	X16	Y16	Z16	X17	Y17	Z17	X18	Y18	Z18	X19	Y19	Z19	X20	Y20	Z20	X21	Y21	Z21	X22	Y22	Z22	X23	Y23	Z23	X24	Y24	Z24	X25	Y25	Z25	X26	Y26	Z26	X27	Y27	Z27	X28	Y28	Z28	X29	Y29	Z29	X30	Y30	Z30	X31	Y31	Z31	X32	Y32	Z32	X33	Y33	Z33	X34	Y34	Z34	X35	Y35	Z35	X36	Y36	Z36	X37	Y37	Z37	X38	Y38	Z38	X39	Y39	Z39	X40	Y40	Z40	X41	Y41	Z41	X42	Y42	Z42	X43	Y43	Z43	X44	Y44	Z44	X45	Y45	Z45	X46	Y46	Z46	X47	Y47	Z47	X48	Y48	Z48	X49	Y49	Z49	X50	Y50	Z50	X51	Y51	Z51	X52	Y52	Z52	X53	Y53	Z53	X54	Y54	Z54	X55	Y55	Z55	

133	0.66	203.2699432373047	1170.951171875	-2226.37841796875	200.6257934570312	1206.25830078125	-206.0741424560546	490.4049987792969	1373.049438476562	-1178.892700195312	437.0074462890625	1396.76904296875	-1117.668579101562	449.85302734375	1396.91845703125	-1253.088989257812	255.3094787597656	1254.220947265625	-1194.380859375	137.7442626953125	1132.448364257812	-1202.826171875	115.5942077636719	1104.898803710938	-1221.138671875	106.9941101074219	1099.197143554688	-1172.053466796875	88.12763214111328	1046.361083984375	-1206.97705078125	66.91254425048828	986.0126953125001	-1205.515502929688	31.40574264526367	966.0335083007814	-1219.258544921875	30.12073516845703	962.6948242187501	-1168.956176757812	-0.3729842603206635	911.6165161132814	-1198.817138671875	-44.34440994262695	820.8256225585939	-1223.931274414062	-42.32785797119141	820.4403686523439	-1172.306640625	-59.40106582641602	761.5419311523439	-1197.760131835938	111.7876281738281	580.1906127929689	-1474.916870117188	117.3627624511719	501.3887939453126	-1470.598388671875	148.4250030517578	534.1661376953126	-1492.727172851562	182.5215606689453	318.7326049804689	-1583.534545898438	125.4129867553711	266.6656188964845	-1563.245727539062	172.6153106689453	257.6925354003907	-1579.0615234375	77.2098388671875	69.67660522460946	-1487.964599609375	283.8530578613281	49.40399169921884	-1546.212036132812	215.8913421630859	24.61284828186045	-1634.2861328125	84.50346374511719	579.6862182617188	-925.2730712890625	146.5017242431641	582.4453735351562	-874.79150390625	127.1150283813477	542.972412109375	-897.8798828125	149.2741241455078	337.4068298339844	-809.4696044921875	162.562744140625	260.4371643066407	-798.8239135742188	123.7013397216797	281.5422668457032	-821.8302001953125	54.12458419799805	64.86131286621099	-914.3461303710938	251.1087799072266	47.44624710083013	-834.6842651367188	168.8188171386719	35.61222839355474	-755.1798706054688	374.2464599609375	1100.376953125	-1195.383056640625	340.1522521972656	957.0094604492189	-1193.199584960938	286.78369140625	1211.729125976562	-1357.720703125	168.3272094726562	1109.541137695312	-1450.595336914062	117.6635437011719	1069.1328125	-1439.095458984375	145.3081970214844	1055.946899414062	-1479.90625	113.1942443847656	989.9326171875001	-1549.101806640625	183.5411376953125	983.0057373046876	-1585.204833984375	157.2112884521484	1024.79541015625	-1573.996215820312	211.9666595458984	1104.94189453125	-1610.794677734375	232.1704406738281	1127.098754882812	-1537.302856445312	291.4640502929688	1209.591918945312	-1038.698852539062	173.1068878173828	1112.1318359375	-955.0411376953124	141.4326324462891	1062.198120117188	-925.2593994140624	122.9578018188477	1073.40478515625	-972.8693237304686	124.9004516601562	991.5624389648438	-838.0573120117186	134.1408538818359	1070.394775390625	-826.3016357421874	165.4561004638672	1031.971069335938	-813.2109374999999	205.6390533447266	1113.850708007812	-790.9478759765624	236.4310302734375	1142.556396484375	-859.2051391601561	
134	0.665	203.2048797607422	1167.875	-2226.35302734375	200.9014129638672	1203.048217773438	-206.0475921630859	490.5349731445312	1369.891235351562	-1178.930541992188	437.1369018554688	1393.610717773438	-1117.701293945312	449.9944763183594	1393.760986328125	-1253.134399414062	255.4488677978516	1251.123046875	-1194.393188476562	137.8170166015625	1129.465454101562	-1202.8603515625	115.6317291259766	1102.014038085938	-1221.131469726562	107.0661163330078	1096.324829101562	-1172.051391601562	88.05806732177734	1043.5263671875	-1206.965209960938	66.74648284912109	983.2870483398439	-1205.486083984375	31.17226409912109	963.4556884765626	-1219.222534179688	29.90216636657715	960.1104125976564	-1168.90966796875	-0.7483897805213928	909.1058349609376	-1198.804809570312	-44.98508071899414	818.0597534179689	-1223.917724609375	-42.97388458251953	817.6445922851564	-1172.291137695312	-59.96705627441406	758.7389526367189	-1197.776733398438	111.9653244018555	578.5394287109376	-1475.526733398438	118.0092849731445	499.7500610351564	-1471.461181640625	148.8694458007812	532.7767944335939	-1493.50634765625	183.1299743652344	318.4206848144532	-1584.258422851562	125.9030380249023	266.5615539550782	-1563.769287109375	173.0531768798828	257.4203491210939	-1579.645874023438	77.21414184570312	69.69260406494149	-1487.98828125	283.8577270507812	49.40219116210947	-1546.22900390625	215.8859100341797	24.58667373657237	-1634.305297851562	84.71660614013672	577.5618896484375	-924.87646484375	146.6260070800781	580.920166015625	-874.31396484375	127.5713119506836	541.2342529296875	-897.3191528320312	150.1549530029297	337.0339660644532	-808.7864379882812	163.2108459472656	259.9969482421876	-798.3348388671875	124.4180526733398	281.2785949707032	-821.28564453125	54.17142486572266	64.91192626953131	-914.3765869140625	251.1278076171875	47.42837142944341	-834.6942749023438	168.8278961181641	35.6262702941895	-755.1878051757812	374.2922973632812	1097.211791992188	-1195.415893554688	340.0511474609375	953.8186645507814	-1193.220092773438	286.8843994140625	1208.59375	-1357.752807617188	168.3538208007812	1106.492065429688	-1450.623046875	117.6538543701172	1066.132568359375	-1439.090087890625	145.2767639160156	1052.902709960938	-1479.900512695312	113.1132736206055	986.9119262695314	-1549.035278320312	183.4166564941406	979.9332885742189	-1585.161865234375	156.9723052978516	1021.813293457031	-1574.018188476562	211.9583435058594	1101.838012695312	-1610.77197265625	232.1291809082031	1123.988525390625	-1537.267578125	291.6115417480469	1206.468627929688	-1038.71923828125	173.2565460205078	1109.027587890625	-955.0333251953124	141.5797729492188	1059.100830078125	-925.2427368164061	123.0912551879883	1070.311401367188	-972.8505859374999	125.1277008056641	988.4295654296875	-838.0499877929686	134.3581848144531	1067.268188476562	-826.2807617187499	165.6963653564453	1028.838745117188	-813.2288208007811	205.868408203125	1110.720092773438	-790.9808349609374	236.60546875	1139.459838867188	-859.2526855468749	
135	0.67	203.1405792236328	1164.795043945313	-2226.333984375	201.1764831542969	1199.834228515625	-206.0270690917968	490.6545104980469	1366.750610351562	-1178.975219726562	437.2553100585938	1390.46484375	-1117.739379882812	450.1177978515625	1390.61083984375	-1253.185180664062	255.5988006591797	1248.020141601562	-1194.403442382812	137.9033660888672	1126.476318359375	-1202.89013671875	115.6844863891602	1099.12451171875	-1221.118530273438	107.1487045288086	1093.446899414062	-1172.041625976562	88.00264739990234	1040.687622070312	-1206.947265625	66.59324645996094	980.5596923828126	-1205.452758789062	30.95201873779297	960.8770141601564	-1219.18798828125	29.69330406188965	957.5219116210939	-1168.864501953125	-1.110324501991272	906.5927734375001	-1198.799194335938	-45.61334609985352	815.2987670898439	-1223.928833007812	-43.61269378662109	814.8479614257814	-1172.30126953125	-60.52507019042969	755.9377441406251	-1197.825927734375	112.1330871582031	576.8818969726564	-1476.128784179688	118.6379623413086	498.1096801757814	-1472.320678710938	149.302490234375	531.3820190429689	-1494.275024414062	183.7287445068359	318.1097106933595	-1584.9775390625	126.3865509033203	266.4565429687501	-1564.2919921875	173.4836273193359	257.1493225097657	-1580.228637695312	77.2181396484375	69.70980834960946	-1488.013916015625	283.8633117675781	49.40152359008798	-1546.246215820312	215.8803253173828	24.55924224853526	-1634.325073242188	84.92742156982422	575.4412231445312	-924.4865112304688	146.7474060058594	579.3898315429688	-873.8511962890625	128.0213928222656	539.4965209960938	-896.773681640625	151.0231170654297	336.6640319824219	-808.1209106445312	163.8470611572266	259.5634155273438	-797.85107421875	125.1282501220703	281.0150451660157	-820.753662109375	54.22185516357422	64.96192932128912	-914.4095458984375	251.1479797363281	47.40923309326177	-834.7064208984375	168.8376007080078	35.64118194580083	-755.1969604492188	374.3509521484375	1094.043701171875	-1195.439697265625	339.9645385742188	950.6213989257814	-1193.2294921875	286.9942626953125	1205.449462890625	-1357.779296875	168.3742980957031	1103.4443359375	-1450.639770507812	117.6431503295898	1063.135375976562	-1439.067260742188	145.2403717041016	1049.860961914062	-1479.879638671875	113.0185394287109	983.8930053710939	-1548.954833984375	183.2772674560547	976.8547363281251	-1585.108276367188	156.710205078125	1018.833618164063	-1574.03515625	211.9451904296875	1098.723022460938	-1610.747680664062	232.0873413085938	1120.871704101562	-1537.232543945312	291.7613830566406	1203.343139648438	-1038.73876953125	173.4062042236328	1105.925537109375	-955.0243530273436	141.7177886962891	1056.007690429688	-925.2281494140624	123.2213897705078	1067.227294921875	-972.8359985351561	125.3324584960938	985.2998657226562	-838.0548706054686	134.5565948486328	1064.144409179688	-826.2703247070311	165.9191131591797	1025.703002929688	-813.2550048828124	206.0876007080078	1107.581298828125	-791.0161743164061	236.7786560058594	1136.351196289062	-859.3000488281249	
136	0.675	203.0768585205078	1161.713134765625	-2226.321044921875	201.4506988525391	1196.619140625	-206.0125122070312	490.7661743164062	1363.625610351562	-1179.026123046875	437.3652954101562	1387.329833984375	-1117.782348632812	450.2248840332031	1387.465942382812	-1253.240600585938	255.7604827880859	1244.9111328125	-1194.410522460938	138.0036468505859	1123.480590820312	-1202.913940429688	115.7527770996094	1096.230102539062	-1221.098999023438	107.2421264648438	1090.562255859375	-1172.022583007812	87.96156311035156	1037.844604492188	-1206.92333984375	66.45301055908203	977.8311767578126	-1205.416015625	30.7460994720459	958.2989501953126	-1219.155395507812	29.49542999267578	954.9308471679689	-1168.8212890625	-1.45764696598053	904.0794677734376	-1198.799438476562	-46.22778701782227	812.5477905273439	-1223.962768554688	-44.2426643371582	812.0562744140626	-1172.3349609375	-61.07709503173828	753.1448364257814	-1197.905395507812	112.2910690307617	575.2156372070314	-1476.721923828125	119.2498626708984	496.4653625488282	-1473.173461914062	149.7241363525391	529.9796142578126	-1495.031127929688	184.3185577392578	317.7994384765626	-1585.69140625	126.8638153076172	266.3505249023439	-1564.813598632812	173.9074096679688	256.8791503906251	-1580.809448242188	77.22167205810547	69.72782897949227	-1488.041625976562	283.869873046875	49.40229034423837	-1546.263427734375	215.8746185302734	24.53072738647471	-1634.34521484375	85.13610076904297	573.3285522460938	-924.101318359375	146.8673706054688	577.8582153320312	-873.4025268554688	128.465087890625	537.7630004882812	-896.2415161132812	151.8772888183594	336.2969360351563	-807.4720458984375	164.4714965820312	259.1363525390626	-797.373779296875	125.8304901123047	280.7513122558594	-820.2335205078125	54.27508163452148	65.01087951660162	-914.4439697265625	251.1689758300781	47.38910293579107	-834.7203369140625	168.8476715087891	35.65660095214849	-755.20703125	374.4230041503906	1090.870849609375	-1195.45361328125	339.8931274414062	947.4164428710939	-1193.22705078125	287.1143188476562	1202.295776367188	-1357.798950195312	168.3880004882812	1100.39697265625	-1450.645751953125	117.6325988769531	1060.14013671875	-1439.027221679688	145.2010040283203	1046.820556640625	-1479.84375	112.9109878540039	980.8752441406251	-1548.861694335938	183.1251831054688	973.7695922851564	-1585.044799804688	156.4327545166016	1015.852905273438	-1574.045654296875	211.9283447265625	1095.596923828125	-1610.722045898438	232.0478363037109	1117.74755859375	-1537.198486328125	291.9146728515625	1200.214599609375	-1038.756469726562	173.5564422607422	1102.824340820312	-955.0140380859374	141.8469390869141	1052.918090820312	-925.2156982421874	123.3486251831055	1064.151733398438	-972.8254394531249	125.5138702392578	982.1736450195312	-838.0709838867186	134.7359619140625	1061.023315429688	-826.2697753906249	166.1240386962891	1022.564270019531	-813.2888183593749	206.2967071533203	1104.434814453125	-791.0532226562499	236.9506683349609	1133.230102539062	-859.3466186523436	
